<?xml version="1.0" standalone="no"?>
<!DOCTYPE svg PUBLIC "-//W3C//DTD SVG 20010904//EN"
 "http://www.w3.org/TR/2001/REC-SVG-20010904/DTD/svg10.dtd">
<svg version="1.0" xmlns="http://www.w3.org/2000/svg"
 width="1024.000000pt" height="1024.000000pt" viewBox="0 0 1024.000000 1024.000000"
 preserveAspectRatio="xMidYMid meet">

<g transform="translate(0.000000,1024.000000) scale(0.100000,-0.100000)"
fill="#000000" stroke="none">
<path d="M5065 7764 c-300 -11 -551 -39 -702 -79 -150 -40 -201 -71 -348 -215
-71 -70 -220 -210 -330 -312 l-201 -185 -209 -7 c-1058 -34 -1852 -123 -2251
-251 -114 -36 -154 -62 -191 -124 -47 -79 -65 -170 -67 -346 -1 -125 -4 -154
-18 -175 -24 -32 -24 -158 -2 -224 9 -26 37 -70 65 -100 l49 -54 -29 -63 c-62
-133 -60 -98 -61 -1414 -1 -820 2 -1217 9 -1255 65 -332 280 -563 606 -652
109 -29 276 -28 700 5 1565 124 3256 148 4670 67 372 -21 837 -51 1030 -66
290 -22 477 -20 600 5 302 62 551 194 756 401 171 172 272 349 346 601 l27 94
4 900 c3 980 -3 1197 -38 1310 -28 89 -62 156 -111 222 l-39 53 29 52 c16 29
37 80 47 113 15 53 15 67 4 120 -7 33 -14 128 -15 210 -4 268 -33 306 -255
335 -105 14 -216 37 -435 90 -196 48 -169 33 -560 295 -503 337 -740 454
-1051 519 -219 46 -650 93 -1054 115 -196 11 -824 21 -975 15z m652 -164 c213
-13 271 -23 303 -55 l24 -25 -23 -72 c-73 -230 -192 -521 -225 -547 -43 -36
-33 1 91 336 51 138 93 256 93 263 0 20 -48 29 -222 41 -183 12 -717 7 -1138
-11 -321 -14 -400 -16 -400 -9 0 7 124 34 225 48 39 6 165 15 280 21 116 6
235 12 265 13 140 8 572 6 727 -3z m1003 -65 c252 -23 387 -48 461 -86 109
-54 506 -347 582 -428 47 -50 61 -93 37 -117 -8 -8 55 -13 202 -18 286 -9 332
-20 118 -29 -206 -8 -319 -20 -585 -60 -204 -31 -219 -31 -555 -32 -190 0
-358 4 -373 8 -19 5 -27 13 -25 25 3 16 36 18 393 23 394 6 425 9 678 55 94
17 114 33 103 79 -10 40 -218 205 -467 371 -101 67 -152 95 -190 103 -165 36
-516 70 -744 74 l-150 2 -19 -40 c-29 -61 -171 -442 -196 -524 -14 -48 -18
-77 -12 -83 9 -9 217 -27 330 -28 41 0 52 -3 52 -16 0 -15 -19 -16 -202 -12
-232 6 -234 7 -223 88 15 106 208 631 243 659 21 16 284 9 542 -14z m-2120
-140 c127 -7 343 -25 348 -30 2 -1 -27 -77 -64 -169 l-66 -166 -411 0 -411 0
50 53 c28 28 108 114 179 190 l128 138 66 -5 c36 -3 118 -8 181 -11z m-497
-59 c-15 -18 -84 -95 -153 -170 -103 -111 -130 -136 -153 -136 -23 0 -26 3
-18 18 15 28 333 322 348 322 2 0 -8 -15 -24 -34z m2183 -366 c6 -83 -9 -80
-20 5 -4 28 -18 107 -32 178 -13 70 -24 142 -23 160 1 50 69 -259 75 -343z
m727 293 c29 -139 59 -304 55 -308 -5 -4 -169 -9 -264 -7 l-81 2 -12 53 c-15
67 -44 115 -78 128 -14 5 -71 8 -127 7 l-101 -3 -5 -35 c-5 -34 -6 -32 -37 50
-18 47 -35 99 -39 115 -3 17 -8 38 -10 47 -6 20 32 22 437 26 l246 2 16 -77z
m342 -137 c172 -135 204 -161 204 -167 1 -7 -74 -14 -261 -25 -107 -7 -107 -7
-112 17 -3 13 -21 92 -41 175 -19 83 -35 158 -35 168 0 18 59 -23 245 -168z
m-2154 103 c53 -38 109 -90 109 -101 0 -5 -39 -34 -87 -65 -71 -47 -94 -57
-123 -54 -19 2 -36 4 -37 5 -6 5 79 246 86 246 5 0 28 -14 52 -31z m1331 -297
c5 -19 4 -48 -2 -71 l-10 -39 -63 -4 c-34 -2 -63 -4 -64 -3 -5 1 26 128 33
135 12 11 44 18 73 17 19 -2 27 -10 33 -35z m-1857 -52 c255 -10 720 -36 845
-48 41 -4 -301 -5 -760 -3 -767 3 -1069 -3 -1365 -25 -44 -4 -77 -4 -74 0 13
13 456 65 684 79 114 7 445 6 670 -3z m-1645 -34 c0 -2 -37 -9 -82 -16 -156
-22 -392 -71 -506 -106 -120 -37 -188 -67 -261 -117 l-44 -30 19 32 c27 46 72
86 129 115 l50 26 -50 -5 c-253 -26 -372 -41 -570 -71 -126 -19 -281 -45 -342
-57 -62 -13 -109 -20 -105 -16 13 13 196 69 291 89 116 26 365 64 576 90 272
33 895 79 895 66z m5485 -92 c148 -21 671 -131 662 -140 -2 -2 -137 16 -301
41 -163 25 -357 50 -429 56 -142 12 -466 7 -729 -12 -193 -13 -231 -9 -113 13
338 64 650 78 910 42z m-2865 -14 c348 -14 904 -51 990 -67 l35 -6 -30 -7
c-44 -11 -439 -11 -760 0 -376 13 -905 13 -1095 0 -402 -27 -908 -103 -1078
-161 -46 -16 -54 -16 -59 -3 -9 23 26 53 81 69 282 81 818 154 1256 172 85 3
157 7 159 9 8 7 259 4 501 -6z m1825 -64 c32 -51 40 -129 39 -366 -1 -227 -17
-413 -44 -495 -9 -28 -10 -28 -4 8 13 96 24 275 24 422 0 226 -22 371 -68 457
-9 17 41 -7 53 -26z m-95 -101 c0 -23 -38 -37 -119 -42 -75 -4 -122 8 -125 32
-1 12 64 22 167 23 62 2 77 -1 77 -13z m-5095 -86 c400 -9 760 -25 1035 -44
l205 -15 39 -41 39 -42 -6 -180 c-5 -139 -10 -185 -22 -204 -16 -23 -61 -51
-70 -42 -2 3 3 25 11 49 11 32 16 88 17 190 2 164 -9 203 -60 214 -42 9 -433
34 -718 46 -518 23 -1639 38 -1746 24 -42 -6 -52 -11 -62 -33 -18 -42 -14
-278 6 -331 18 -49 15 -60 -11 -44 -38 24 -47 63 -47 214 1 198 17 227 135
241 73 9 839 7 1255 -2z m3616 -106 c10 -66 14 -198 14 -407 l0 -309 170 7
c279 11 699 36 875 51 90 8 166 13 168 11 15 -16 -775 -93 -1142 -112 l-139
-7 6 44 c19 141 28 345 25 571 -1 141 0 254 3 252 4 -2 13 -48 20 -101z
m-3971 -3 c57 -5 -86 -7 -356 -4 -403 3 -453 2 -465 -12 -19 -23 -24 -192 -7
-224 17 -32 18 -32 538 -65 228 -14 420 -27 425 -29 67 -23 -661 5 -889 34
-103 13 -111 24 -111 158 1 66 6 116 13 130 l13 22 372 -1 c205 -1 415 -5 467
-9z m242 -182 c2 -101 0 -187 -5 -193 -4 -5 -14 -2 -25 8 -15 15 -17 39 -17
180 0 162 4 187 30 187 11 0 14 -36 17 -182z m628 157 c320 -10 625 -27 640
-36 20 -11 29 -11 -325 6 -165 7 -384 17 -488 21 -103 4 -190 11 -193 16 -4 6
31 8 92 4 55 -3 178 -8 274 -11z m-520 -139 c0 -103 3 -127 18 -145 16 -19 32
-21 327 -30 171 -6 409 -13 530 -16 243 -7 305 -12 305 -26 0 -22 -1102 -2
-1177 22 -31 10 -31 11 -38 96 -7 84 -2 204 10 224 17 27 25 -14 25 -125z
m6230 73 c54 -16 113 -69 141 -125 43 -89 59 -234 40 -354 -6 -38 -8 -41 -13
-20 -4 14 -9 57 -13 95 -16 170 -43 251 -102 307 -47 45 -92 58 -199 58 -133
0 -167 -12 -241 -85 -51 -52 -72 -83 -123 -191 -34 -71 -71 -148 -83 -172 -26
-51 -117 -175 -124 -168 -3 3 6 20 20 38 35 46 61 100 116 242 80 205 154 316
239 360 68 35 248 43 342 15z m-3260 -68 c110 -43 186 -119 230 -231 34 -87
53 -223 46 -335 -10 -164 -21 -179 -30 -41 -8 134 -28 259 -51 326 -38 108
-123 193 -231 230 -99 35 -360 23 -442 -19 -42 -22 -143 -124 -188 -191 -17
-25 -66 -108 -109 -185 -81 -147 -147 -246 -185 -280 -15 -13 -10 -2 13 31 20
28 79 138 131 245 98 202 130 255 210 339 112 118 186 142 426 136 99 -3 137
-8 180 -25z m4027 -53 c-6 -57 -35 -164 -42 -156 -4 4 12 153 21 191 3 15 10
27 16 27 7 0 9 -21 5 -62z m-959 -131 c72 -69 112 -198 112 -362 0 -126 -18
-216 -57 -287 -91 -167 -233 -147 -310 42 -32 80 -43 146 -43 254 0 190 74
342 186 381 48 17 70 12 112 -28z m-7038 -72 c732 -59 1104 -75 1772 -76 433
0 521 2 599 17 89 16 92 16 117 -4 26 -19 27 -23 26 -121 0 -129 -6 -136 -96
-127 l-64 7 -27 54 c-18 37 -34 56 -49 59 -13 3 -176 7 -363 10 -187 3 -398 8
-470 12 -573 24 -1246 63 -1553 89 -95 8 -202 15 -237 15 -55 0 -66 3 -79 22
-37 53 -12 81 64 73 30 -3 192 -16 360 -30z m3728 -56 c193 -96 295 -367 232
-613 -35 -137 -119 -257 -216 -306 -74 -38 -178 -36 -257 5 -116 58 -197 171
-229 319 -28 132 10 347 83 465 88 145 250 199 387 130z m4188 -213 c41 -48
73 -129 83 -214 4 -35 7 -503 7 -1041 l-1 -976 -26 -95 c-105 -377 -401 -674
-780 -784 -193 -55 -272 -57 -920 -16 -1298 80 -2227 104 -3259 81 -1007 -22
-1671 -53 -2505 -117 -206 -15 -277 -13 -380 13 -145 36 -282 148 -348 283
-71 145 -67 65 -67 1386 0 1159 1 1194 20 1256 18 59 74 158 88 158 19 0 116
-65 166 -111 67 -61 112 -75 278 -85 l106 -7 17 -66 c21 -85 72 -191 130 -269
25 -34 45 -64 45 -67 0 -3 -19 -5 -42 -5 -37 0 -329 -35 -385 -46 -44 -9 -41
-75 5 -92 49 -18 665 -54 1412 -82 151 -6 483 -10 738 -9 584 3 688 3 1062 -2
289 -4 310 -3 405 19 63 14 177 28 310 37 384 27 1165 93 1605 135 118 11 355
29 525 40 631 39 1425 108 1506 130 81 22 72 69 -19 97 -48 15 -93 18 -273 17
l-216 -1 29 56 c26 51 57 161 72 251 l6 35 163 54 c89 30 200 69 247 87 l85
32 39 -21 c21 -12 54 -40 72 -61z m-7394 -50 c28 -57 34 -75 20 -61 -27 26
-92 135 -92 153 0 29 31 -11 72 -92z m706 22 c27 -41 72 -130 72 -144 0 -15
-45 34 -76 82 -59 91 -55 149 4 62z m-1135 6 c39 -21 47 -31 47 -68 0 -27 -1
-28 -22 -14 -35 23 -83 98 -63 98 4 0 20 -7 38 -16z m1870 -84 c26 -20 54 -86
43 -98 -11 -11 -59 12 -77 38 -10 14 -21 37 -25 53 -5 22 -3 27 14 27 10 0 31
-9 45 -20z m4338 -222 c13 -40 25 -78 27 -84 2 -8 -94 -13 -335 -18 -186 -4
-444 -11 -573 -16 -129 -5 -296 -12 -371 -15 l-135 -6 54 58 c49 52 59 57 101
60 25 2 172 10 325 18 314 17 613 42 629 52 6 3 63 9 126 13 64 4 119 8 123 8
3 1 16 -31 29 -70z m-3541 -105 c0 -16 6 -53 14 -85 l13 -56 -76 -6 c-42 -3
-204 -8 -361 -11 -246 -5 -698 -32 -854 -50 l-49 -6 51 46 c29 26 71 76 94
111 l42 64 466 1 c256 1 497 5 535 9 128 13 125 13 125 -17z m1537 -25 c18
-18 33 -36 33 -40 0 -4 -49 -8 -110 -8 l-110 0 12 28 c21 47 28 52 86 52 49 0
60 -4 89 -32z"/>
<path d="M8175 6019 c-33 -17 -82 -90 -104 -155 -78 -233 17 -553 158 -530 92
14 155 156 154 346 -1 232 -100 393 -208 339z m146 -251 c16 -53 20 -88 17
-156 -3 -78 -7 -95 -33 -138 -34 -54 -98 -95 -118 -75 -8 8 -7 11 5 11 9 0 31
17 50 39 47 51 62 116 56 242 -4 84 -9 108 -36 161 l-31 63 35 -40 c22 -24 42
-65 55 -107z m-101 -80 c13 -25 13 -31 0 -55 -17 -31 -58 -43 -71 -21 -13 20
-11 82 3 96 20 20 51 10 68 -20z"/>
<path d="M4793 5875 c-93 -40 -180 -168 -209 -307 -20 -94 -14 -242 13 -314
55 -143 173 -234 306 -234 102 0 191 73 253 207 112 239 24 551 -180 644 -49
22 -137 24 -183 4z m29 -171 c18 -52 24 -134 9 -134 -17 0 -43 72 -49 133 -4
48 -2 59 9 55 8 -2 22 -27 31 -54z m209 -16 c124 -128 125 -382 3 -527 -49
-59 -149 -90 -194 -61 -12 8 -10 10 9 10 31 0 111 38 111 53 0 5 -18 43 -40
83 -22 40 -40 76 -40 79 0 15 63 -30 91 -65 30 -38 33 -39 50 -24 31 28 61
123 62 196 1 37 -2 70 -6 74 -3 4 -38 3 -77 -3 -38 -5 -70 -6 -70 -3 0 3 29
23 66 43 74 43 74 46 24 130 -16 26 -27 47 -25 47 3 0 19 -15 36 -32z m-303
-202 c5 -23 -22 -20 -54 7 -19 17 -25 29 -21 42 7 16 10 15 40 -8 17 -13 33
-32 35 -41z m156 12 c31 -44 15 -98 -29 -98 -29 0 -45 19 -45 53 0 63 43 89
74 45z m-104 -190 c-1 -35 -38 -110 -52 -105 -20 7 -13 62 13 96 27 37 39 39
39 9z"/>
<path d="M8695 4959 c-110 -10 -210 -21 -222 -24 -34 -8 -81 -53 -92 -88 -6
-18 -51 -228 -100 -467 -49 -239 -99 -478 -112 -530 l-23 -95 -37 150 c-20 83
-71 299 -113 480 -90 388 -98 414 -134 448 -38 36 -60 39 -215 28 -149 -10
-175 -19 -201 -69 -8 -15 -55 -182 -105 -372 -143 -546 -187 -697 -194 -669
-3 13 -51 239 -106 502 -56 263 -105 486 -110 496 -22 41 -58 45 -283 32 -117
-7 -220 -17 -230 -22 -25 -14 -38 -42 -38 -86 0 -38 26 -156 264 -1188 151
-650 143 -624 180 -661 36 -35 56 -39 297 -50 231 -10 243 0 333 313 92 322
145 502 178 608 l31 100 122 -487 c78 -311 131 -500 145 -523 37 -59 64 -67
255 -76 94 -3 185 -4 203 -1 20 3 50 21 77 46 41 39 45 48 74 166 127 503 220
879 285 1145 176 725 196 808 196 830 0 39 -39 76 -85 80 -22 2 -130 -5 -240
-16z"/>
<path d="M5855 4725 c-165 -14 -384 -31 -486 -39 -103 -8 -196 -19 -207 -25
-10 -6 -27 -26 -36 -45 -14 -31 -16 -117 -16 -859 0 -471 4 -836 9 -850 22
-58 6 -57 821 -74 469 -10 436 -12 468 20 l27 27 0 190 0 190 -26 25 -25 26
-347 6 c-401 7 -360 -8 -355 128 l3 80 270 5 c149 3 271 7 272 8 44 43 43 39
43 213 0 163 -1 169 -24 196 l-24 28 -260 3 c-203 2 -263 6 -272 16 -7 9 -10
53 -8 122 l3 109 70 6 c39 4 169 7 290 8 140 1 233 6 255 14 61 21 63 40 24
227 -40 195 -49 222 -74 245 -28 25 -69 25 -395 0z"/>
<path d="M1453 4701 c-22 -14 -34 -31 -38 -53 -3 -18 -5 -445 -3 -948 3 -851
4 -918 20 -942 25 -38 62 -42 234 -24 82 8 289 27 459 41 478 40 591 63 720
149 216 146 332 313 391 566 24 103 30 441 10 568 -30 190 -85 308 -198 428
-99 104 -210 157 -410 195 -29 6 -273 14 -543 19 -269 4 -517 11 -550 15 -50
5 -65 3 -92 -14z m976 -495 c180 -38 248 -136 258 -371 14 -312 -78 -462 -303
-495 -100 -14 -367 -13 -382 2 -18 18 -17 841 1 856 26 22 334 27 426 8z"/>
<path d="M3410 4653 c-8 -3 -23 -12 -32 -21 -17 -14 -18 -68 -18 -868 0 -469
3 -860 6 -869 15 -39 54 -45 287 -45 l224 0 26 26 27 26 2 232 3 231 102 0
c89 0 105 -3 122 -20 10 -11 69 -118 131 -238 143 -277 113 -257 399 -257 212
0 253 6 277 38 30 38 29 39 -164 351 -80 129 -141 236 -135 238 32 11 134 80
170 115 52 51 108 154 128 239 41 170 27 409 -32 529 -36 73 -142 179 -215
213 -74 35 -201 65 -325 77 -102 10 -957 13 -983 3z m927 -449 c45 -33 65 -79
71 -154 9 -126 -26 -207 -107 -244 -40 -18 -66 -21 -191 -22 -80 -1 -153 3
-162 8 -16 8 -18 28 -18 208 0 109 3 206 6 215 6 14 27 16 190 13 167 -3 185
-5 211 -24z"/>
</g>
</svg>
